<?xml version="1.0" standalone="no"?>
<!DOCTYPE svg PUBLIC "-//W3C//DTD SVG 20010904//EN"
 "http://www.w3.org/TR/2001/REC-SVG-20010904/DTD/svg10.dtd">
<svg version="1.0" xmlns="http://www.w3.org/2000/svg"
 width="225.000000pt" height="225.000000pt" viewBox="0 0 225.000000 225.000000"
 preserveAspectRatio="xMidYMid meet">
<metadata>
Created by potrace 1.16, written by Peter Selinger 2001-2019
</metadata>
<g transform="translate(0.000000,225.000000) scale(0.100000,-0.100000)"
fill="#000000" stroke="none">
<path d="M1585 1839 c-26 -12 -51 -16 -72 -13 -26 5 -33 3 -33 -9 0 -9 10 -23
21 -31 26 -17 25 -18 -75 -123 -70 -74 -86 -85 -86 -59 0 8 -5 18 -10 21 -7 4
-8 -3 -4 -20 6 -23 -1 -34 -41 -75 -48 -48 -48 -49 -77 -34 -16 9 -48 18 -71
22 l-42 7 -3 58 c-2 32 -8 57 -14 57 -7 0 -8 -18 -3 -55 6 -50 5 -55 -13 -55
-11 0 -33 -3 -49 -6 -30 -6 -30 -5 -37 45 -4 28 -12 51 -17 51 -6 0 -8 -7 -5
-16 3 -9 9 -33 12 -55 6 -34 4 -39 -13 -39 -10 0 -23 -4 -29 -9 -5 -5 -18 -12
-30 -15 -16 -5 -23 0 -34 29 -8 19 -17 35 -22 35 -12 0 -10 -10 12 -46 l21
-33 -38 -34 -38 -35 -36 29 c-20 16 -43 29 -51 29 -7 0 -19 9 -26 20 -8 13 -8
20 -2 20 17 0 65 -27 79 -44 26 -32 29 -15 5 30 -14 26 -23 48 -21 50 2 3 21
-11 42 -31 39 -35 62 -40 32 -7 -10 10 -17 28 -17 40 0 12 -5 33 -12 47 -6 14
-8 28 -4 32 7 8 59 -45 82 -83 7 -11 15 -16 19 -12 4 4 3 13 -3 20 -11 14 -25
88 -17 88 11 0 45 -35 45 -46 0 -6 7 -17 15 -24 17 -14 19 -7 6 18 -5 9 -6 46
-2 82 l7 65 22 -42 c12 -23 22 -50 22 -60 0 -10 4 -24 9 -32 6 -9 9 0 9 25 0
44 5 70 15 80 6 6 8 0 24 -81 l8 -40 3 48 c2 26 7 47 11 47 5 0 11 19 15 42 5
31 9 39 16 28 7 -11 21 -79 24 -122 2 -21 15 -13 35 22 12 22 25 40 28 40 3 0
3 -30 0 -67 -5 -57 -4 -63 5 -36 6 18 29 52 50 75 l40 43 -7 -50 c-4 -27 -12
-60 -16 -73 -15 -39 -10 -40 25 -8 33 31 42 51 10 26 -14 -13 -15 -7 -8 58 5
51 3 72 -5 72 -6 0 -11 -4 -11 -9 0 -13 -50 -71 -61 -71 -5 0 -9 10 -9 23 0
12 -4 28 -9 36 -6 10 -13 6 -27 -18 -19 -32 -34 -40 -34 -18 0 27 -31 117 -40
117 -6 0 -10 -6 -10 -12 0 -7 -5 -30 -11 -52 l-11 -38 -22 21 c-29 28 -36 27
-36 -6 l0 -28 -31 38 c-17 20 -34 37 -39 37 -4 0 -5 -27 -3 -60 6 -66 0 -71
-40 -40 -34 27 -37 26 -30 -16 6 -34 5 -36 -14 -26 -11 6 -25 18 -33 26 -7 9
-18 16 -26 16 -11 0 -11 -8 1 -47 8 -26 12 -49 10 -52 -3 -2 -21 0 -40 6 -38
12 -43 7 -20 -23 20 -27 18 -37 -5 -24 -12 6 -32 10 -46 8 l-25 -3 25 -34 c35
-47 33 -61 -8 -61 -45 0 -51 -12 -20 -41 l25 -23 -38 -12 -38 -12 50 1 c28 0
60 -3 73 -7 13 -5 22 -3 22 3 0 6 -8 11 -18 11 -15 0 -72 50 -72 64 0 12 46 5
68 -10 26 -18 46 -9 21 9 -20 15 -43 57 -31 57 5 0 19 -11 32 -25 13 -14 30
-25 38 -25 7 0 12 -3 10 -8 -43 -96 -38 -92 -92 -93 -28 -1 -40 -3 -26 -6 70
-11 68 -8 72 -79 l3 -65 -80 1 c-44 1 -137 -2 -207 -6 -115 -6 -128 -9 -128
-25 0 -17 8 -19 70 -19 67 0 98 -15 45 -22 -42 -5 -29 -23 22 -29 27 -3 36 -7
21 -7 -16 -1 -28 -6 -28 -11 0 -15 35 -22 95 -20 62 3 81 -5 35 -14 -42 -9
-37 -27 8 -27 20 0 54 -3 76 -7 l38 -6 -28 -12 -29 -12 27 -8 28 -7 -26 -32
c-15 -17 -79 -86 -142 -153 -89 -95 -118 -120 -128 -112 -10 8 -21 5 -45 -11
l-31 -23 21 -20 c17 -18 24 -19 46 -9 15 7 25 20 25 32 0 11 6 20 14 20 7 0
35 24 61 53 26 28 84 89 127 135 79 83 80 83 119 77 39 -7 39 -7 41 -53 0 -26
0 -56 -1 -67 -1 -11 1 -31 4 -44 6 -23 8 -23 93 -18 48 3 102 9 120 13 30 6
32 5 32 -20 0 -14 6 -26 13 -27 6 0 1 -5 -13 -10 -19 -8 -22 -12 -10 -19 8 -5
17 -7 21 -4 4 2 10 0 14 -6 3 -5 1 -10 -4 -10 -19 0 -12 -18 10 -25 22 -7 89
20 89 35 0 5 -15 13 -32 18 -33 9 -33 9 17 16 59 9 77 18 73 37 -2 10 17 15
72 21 58 7 94 18 160 52 47 23 102 46 123 50 38 7 43 26 6 26 -32 0 -21 18 14
23 29 4 30 5 10 12 -25 8 -30 29 -10 42 6 4 34 10 61 13 62 6 71 25 16 34 -31
5 -40 11 -40 26 0 17 7 20 45 20 33 0 45 4 45 15 0 9 -10 16 -27 16 -22 2 -19
3 12 9 22 4 31 8 20 9 l-20 2 20 9 c19 8 19 9 -2 9 -13 1 -23 7 -23 16 0 11
19 15 93 17 74 2 92 6 92 18 0 13 -24 15 -147 18 l-147 3 -5 42 c-3 23 -10
116 -16 207 -6 91 -17 205 -26 254 -15 87 -12 118 7 83 6 -9 19 -17 31 -17 17
0 19 4 14 25 -4 16 1 40 15 66 11 23 19 42 17 44 -2 1 -21 -6 -43 -16z m-190
-374 c-8 -50 -8 -87 1 -147 5 -43 4 -48 -26 -75 -30 -27 -127 -65 -143 -56 -4
2 -5 19 -2 36 3 18 6 71 7 119 3 81 5 87 26 93 36 9 100 73 108 108 l7 32 14
-35 c10 -22 12 -49 8 -75z m-234 34 c20 -5 42 -16 49 -24 10 -12 8 -16 -11
-24 -13 -5 -18 -10 -10 -10 11 -1 -125 -148 -236 -254 -35 -33 -46 -37 -117
-37 l-75 0 -7 46 c-9 65 18 149 67 207 84 98 200 131 340 96z m235 -305 c4
-14 3 -42 -1 -62 -8 -41 -8 -49 1 -109 5 -35 2 -47 -20 -76 -39 -51 -96 -87
-137 -87 -47 0 -52 7 -29 39 17 22 20 44 21 149 1 100 3 122 15 122 23 0 114
31 120 41 10 17 24 9 30 -17z m-427 -199 c31 -28 40 -46 50 -92 12 -61 15
-142 5 -167 -4 -12 -20 -16 -55 -16 l-49 0 0 124 c0 68 -3 138 -6 155 -8 41 6
40 55 -4z"/>
</g>
</svg>
